<?xml version="1.0" encoding="UTF-8"?>
<svg version="1.1" xmlns="http://www.w3.org/2000/svg" width="416" height="130">
<path d="M0 0 C7.49651847 1.58392327 14.84173393 2.33203695 22.49316406 1.43676758 C23.48316406 0.77676758 24.47316406 0.11676758 25.49316406 -0.56323242 C26.48316406 -0.56323242 27.47316406 -0.56323242 28.49316406 -0.56323242 C28.98816406 0.92176758 28.98816406 0.92176758 29.49316406 2.43676758 C26.65588682 7.6573577 23.03839353 12.20834875 17.31738281 14.19067383 C12.97266039 15.23486762 8.96761375 15.50748446 4.49316406 15.43676758 C4.60144531 16.87342773 4.60144531 16.87342773 4.71191406 18.33911133 C7.08302454 51.52202336 7.08302454 51.52202336 -0.50683594 65.43676758 C2.79316406 65.76676758 6.09316406 66.09676758 9.49316406 66.43676758 C9.98816406 64.95176758 9.98816406 64.95176758 10.49316406 63.43676758 C11.81316406 63.43676758 13.13316406 63.43676758 14.49316406 63.43676758 C14.06528985 68.34366549 11.57227591 71.1928074 8.43066406 74.74926758 C7.95822266 75.29905273 7.48578125 75.84883789 6.99902344 76.4152832 C5.83878306 77.76303718 4.66709183 79.10091874 3.49316406 80.43676758 C0.1884765 79.83750205 -2.84582609 78.99469402 -6.00683594 77.87426758 C-13.89845257 75.4606397 -21.8790425 75.2721789 -29.50683594 78.43676758 C-30.82683594 78.43676758 -32.14683594 78.43676758 -33.50683594 78.43676758 C-33.34277344 76.15551758 -33.34277344 76.15551758 -32.50683594 73.43676758 C-30.10839844 71.59301758 -30.10839844 71.59301758 -27.13183594 69.93676758 C-22.85814234 67.54620546 -20.54404517 65.93314533 -18.50683594 61.43676758 C-18.08628451 58.18390863 -18.11338021 54.95899121 -18.13574219 51.68286133 C-18.11836737 49.75772927 -18.10078291 47.8325991 -18.08300781 45.9074707 C-18.07291701 42.88342924 -18.06934424 39.85950687 -18.07104492 36.83544922 C-18.06748012 33.90922626 -18.04016555 30.98392123 -18.01074219 28.05786133 C-18.01892471 27.15361923 -18.02710724 26.24937714 -18.03553772 25.31773376 C-17.96075726 19.02525672 -17.96075726 19.02525672 -15.5847168 15.94482422 C-14.89901611 15.44716553 -14.21331543 14.94950684 -13.50683594 14.43676758 C-12.92933594 13.85926758 -12.35183594 13.28176758 -11.75683594 12.68676758 C-11.13808594 12.06801758 -11.13808594 12.06801758 -10.50683594 11.43676758 C-27.1289911 9.1387678 -27.1289911 9.1387678 -42.50683594 14.43676758 C-45.17520004 18.43931374 -45.34085974 21.72990057 -44.50683594 26.43676758 C-42.32524449 29.19246204 -40.635061 30.87265505 -37.50683594 32.43676758 C-31.42167538 32.67010045 -31.42167538 32.67010045 -25.50683594 31.43676758 C-25.17683594 32.75676758 -24.84683594 34.07676758 -24.50683594 35.43676758 C-29.48850099 37.92760011 -34.36190232 38.38995072 -39.65917969 36.78442383 C-43.86411013 34.95993818 -46.83466135 32.84005826 -48.87402344 28.55004883 C-50.46374549 23.24116223 -50.64078352 18.08126578 -48.43652344 12.94067383 C-43.912067 5.61006545 -37.41643998 0.27276737 -29.08105469 -2.09057617 C-18.9940472 -3.94266708 -9.83550615 -2.15607304 0 0 Z M-3.50683594 13.43676758 C-5.10694167 16.63697904 -4.62165843 20.11404827 -4.61230469 23.62817383 C-4.62577229 25.31243134 -4.64079753 26.99667698 -4.65722656 28.6809082 C-4.67995893 31.33179596 -4.69442065 33.98135313 -4.68188477 36.63232422 C-4.6199046 54.49433773 -4.6199046 54.49433773 -11.50683594 62.43676758 C-11.50683594 63.09676758 -11.50683594 63.75676758 -11.50683594 64.43676758 C-8.39942147 64.78203585 -6.93415401 64.72978568 -4.31933594 62.93676758 C-0.15247494 57.1893731 -0.22224221 50.17507833 -0.31152344 43.34301758 C-0.31435333 42.51088745 -0.31718323 41.67875732 -0.32009888 40.82141113 C-0.33119308 38.19304327 -0.35627668 35.56503048 -0.38183594 32.93676758 C-0.39187968 31.14250171 -0.40100308 29.34823043 -0.40917969 27.55395508 C-0.431097 23.18142479 -0.46555104 18.80915615 -0.50683594 14.43676758 C-1.49683594 14.10676758 -2.48683594 13.77676758 -3.50683594 13.43676758 Z " fill="#516DF5" transform="translate(68.5068359375,26.563232421875)"/>
<path d="M0 0 C7.65901419 0.11788949 12.83185588 1.51649357 18.63818359 6.6315918 C20.53992735 10.34863641 20.14917056 12.34313741 19.01318359 16.3190918 C17.19305942 18.96120753 15.27457209 21.0577033 13.01318359 23.3190918 C13.63193359 24.0615918 14.25068359 24.8040918 14.88818359 25.5690918 C17.01318359 28.3190918 17.01318359 28.3190918 18.07568359 30.5065918 C19.00628162 32.66419032 19.00628162 32.66419032 22.01318359 34.3190918 C20.968971 37.45172958 20.20128773 38.22294968 17.20068359 39.7565918 C14.01318359 40.3190918 14.01318359 40.3190918 11.32568359 39.1940918 C7.86198064 36.385684 6.12660035 33.70882211 4.45068359 29.6315918 C3.40311381 26.24636288 3.40311381 26.24636288 1.01318359 25.3190918 C1.02478516 26.24592773 1.03638672 27.17276367 1.04833984 28.12768555 C1.05736328 29.32522461 1.06638672 30.52276367 1.07568359 31.7565918 C1.08728516 32.95155273 1.09888672 34.14651367 1.11083984 35.37768555 C1.01318359 38.3190918 1.01318359 38.3190918 0.01318359 39.3190918 C-1.83969142 39.39135681 -3.69515518 39.40290399 -5.54931641 39.3815918 C-6.56123047 39.37256836 -7.57314453 39.36354492 -8.61572266 39.35424805 C-9.78941406 39.3368457 -9.78941406 39.3368457 -10.98681641 39.3190918 C-12.21381416 35.63809855 -12.13001452 32.23742488 -12.11962891 28.4050293 C-12.12058563 27.63478424 -12.12154236 26.86453918 -12.12252808 26.07095337 C-12.12320792 24.44533201 -12.12136729 22.81970792 -12.1171875 21.1940918 C-12.11182187 18.69663458 -12.11714655 16.19935602 -12.12353516 13.7019043 C-12.12287463 12.1237789 -12.12159399 10.54565361 -12.11962891 8.9675293 C-12.12165314 8.21651947 -12.12367737 7.46550964 -12.12576294 6.69174194 C-12.08651662 -1.9112273 -7.27633368 0.01928736 0 0 Z M0.01318359 4.3190918 C0.01318359 9.9290918 0.01318359 15.5390918 0.01318359 21.3190918 C5.7150412 19.91537659 5.7150412 19.91537659 8.01318359 17.3190918 C8.3703316 14.98505125 8.3703316 14.98505125 8.32568359 12.3815918 C8.34244141 11.50631836 8.35919922 10.63104492 8.37646484 9.72924805 C8.18384032 7.29801044 8.18384032 7.29801044 6.80615234 5.50268555 C4.67578455 3.8599933 4.67578455 3.8599933 0.01318359 4.3190918 Z " fill="#010106" transform="translate(305.98681640625,43.680908203125)"/>
<path d="M0 0 C2.22638269 -0.06184396 4.45276599 -0.12346558 6.67919922 -0.18347168 C8.38150654 -0.2322702 10.0834848 -0.2929291 11.78515625 -0.36035156 C19.01026838 -0.45639722 24.23258347 1.3709543 29.5 6.375 C31.38096962 9.66669684 31.68626668 11.26365916 31 15 C29.05269096 18.02515538 26.53747571 20.46252429 24 23 C24.61875 23.7425 25.2375 24.485 25.875 25.25 C28 28 28 28 29.0625 30.1875 C29.99309803 32.34509852 29.99309803 32.34509852 33 34 C31.63016497 37.16115776 31.0109362 37.9927092 28 40 C23.79785419 40 22.3465605 39.33850095 19.3125 36.375 C17.59983581 34.10968698 16.43635094 31.87863083 15.375 29.25 C14.25522569 25.77281435 14.25522569 25.77281435 11 24 C11.33 28.95 11.66 33.9 12 39 C7.31871573 39.93625685 4.58415445 39.96972498 0 39 C-1.61732041 35.76535917 -0.99875197 32.25291549 -0.87890625 28.7109375 C-0.85529526 27.89251373 -0.83168427 27.07408997 -0.80735779 26.23086548 C-0.73067056 23.6120694 -0.64666817 20.99356529 -0.5625 18.375 C-0.50928437 16.60157688 -0.45654393 14.82813942 -0.40429688 13.0546875 C-0.2750486 8.70293946 -0.13923848 4.35143939 0 0 Z M12 3 C10.58225162 4.18852855 10.58225162 4.18852855 10.90234375 7.59765625 C10.9090178 9.08596867 10.92097817 10.57426432 10.9375 12.0625 C10.94201172 12.82111328 10.94652344 13.57972656 10.95117188 14.36132812 C10.9629932 16.24091871 10.98092922 18.12046899 11 20 C13.02259692 21.28246153 13.02259692 21.28246153 15.5 20.375 C18.11129331 19.19594655 18.11129331 19.19594655 19.375 16.875 C20.26992567 12.75834192 19.99959474 10.13165827 19 6 C16.56990326 4.00607447 15.16090285 3 12 3 Z " fill="#4D63D1" transform="translate(78,44)"/>
<path d="M0 0 C6.84389149 0.11305652 12.4011315 0.82046284 17.79663086 5.38500977 C22.48374168 10.41320142 24.17275665 15.22474732 24.07397461 21.97485352 C23.45035275 27.39421535 20.91639356 31.6745218 16.85913086 35.26000977 C8.15209901 41.30162371 -2.01781628 41.10503705 -12.20336914 39.38500977 C-13.78493991 36.22186823 -13.34526264 32.82211434 -13.33618164 29.34985352 C-13.33713837 28.55599747 -13.33809509 27.76214142 -13.33908081 26.94422913 C-13.33976165 25.26555299 -13.33791404 23.58687421 -13.33374023 21.90820312 C-13.32838355 19.32944879 -13.33369206 16.75086808 -13.34008789 14.17211914 C-13.33942723 12.54386355 -13.33814632 10.91560806 -13.33618164 9.28735352 C-13.33820587 8.51133286 -13.3402301 7.73531219 -13.34231567 6.93577576 C-13.30197726 -2.20409768 -7.81194811 0.02827168 0 0 Z M-0.20336914 3.38500977 C-2.08240162 5.26404225 -1.33390389 8.47307037 -1.33618164 10.97485352 C-1.33713837 11.63457657 -1.33809509 12.29429962 -1.33908081 12.97401428 C-1.3397625 14.37200007 -1.337909 15.76998901 -1.33374023 17.16796875 C-1.3284002 19.31004959 -1.33368113 21.45191994 -1.34008789 23.59399414 C-1.33942694 24.9501144 -1.33814543 26.30623452 -1.33618164 27.66235352 C-1.33505371 28.90235107 -1.33392578 30.14234863 -1.33276367 31.41992188 C-1.40833612 34.31490352 -1.40833612 34.31490352 -0.20336914 36.38500977 C4.80559391 36.0129024 4.80559391 36.0129024 9.10913086 33.63500977 C13.56394323 27.69525994 13.37033024 21.52849236 12.79663086 14.38500977 C12.21930601 11.08900969 11.49271361 9.39418885 9.79663086 6.38500977 C6.65444041 4.19364763 3.64407072 3.38500977 -0.20336914 3.38500977 Z " fill="#4D60CC" transform="translate(162.203369140625,43.614990234375)"/>
<path d="M0 0 C6.125625 -0.061875 6.125625 -0.061875 12.375 -0.125 C14.30545166 -0.15231201 14.30545166 -0.15231201 16.27490234 -0.18017578 C17.28504395 -0.1851709 18.29518555 -0.19016602 19.3359375 -0.1953125 C20.37282715 -0.20578613 21.4097168 -0.21625977 22.47802734 -0.22705078 C25 0 25 0 27 2 C27.4140625 4.3828125 27.4140625 4.3828125 27.625 7.125 C27.69976562 8.03507812 27.77453125 8.94515625 27.8515625 9.8828125 C27.90054687 10.58148438 27.94953125 11.28015625 28 12 C24.42461423 11.39655936 24.05901011 11.07453909 21.625 8 C19.26633266 4.73994177 19.26633266 4.73994177 15.6875 4.125 C14.800625 4.08375 13.91375 4.0425 13 4 C11.71553081 6.56893838 11.67022856 8.76576337 11.4375 11.625 C11.35371094 12.62789062 11.26992188 13.63078125 11.18359375 14.6640625 C11.12300781 15.43492188 11.06242187 16.20578125 11 17 C16.71863052 15.71860673 16.71863052 15.71860673 21 12 C21.99 12.33 22.98 12.66 24 13 C24 17.29 24 21.58 24 26 C22.68 26 21.36 26 20 26 C19 25 18 24 17 23 C15.35 22.67 13.7 22.34 12 22 C12 26.62 12 31.24 12 36 C19.1829596 35.0226498 19.1829596 35.0226498 24.4375 30.375 C24.88996094 29.74335937 25.34242188 29.11171875 25.80859375 28.4609375 C26.20175781 27.97882813 26.59492188 27.49671875 27 27 C27.66 27 28.32 27 29 27 C29.25 34.5 29.25 34.5 27 39 C18.09 39 9.18 39 0 39 C0 26.13 0 13.26 0 0 Z " fill="#010109" transform="translate(361,44)"/>
<path d="M0 0 C8.25 0 16.5 0 25 0 C28.375 7.875 28.375 7.875 28 12 C27.01 12.495 27.01 12.495 26 13 C24 12 24 12 23 9.0625 C21.34260521 5.84283071 21.34260521 5.84283071 18.58203125 5.16015625 C16.07170751 4.67508664 13.53546674 4.32928139 11 4 C11.33 8.29 11.66 12.58 12 17 C17.77629227 16.67377267 17.77629227 16.67377267 19.875 13.9375 C20.431875 12.9784375 20.431875 12.9784375 21 12 C21.99 12.33 22.98 12.66 24 13 C24 17.29 24 21.58 24 26 C19.24339508 26 18.53255901 24.89850996 15 22 C14.01 22 13.02 22 12 22 C12 26.62 12 31.24 12 36 C13.77375 35.7525 15.5475 35.505 17.375 35.25 C18.37273437 35.11078125 19.37046875 34.9715625 20.3984375 34.828125 C23.11025817 34.26780404 23.11025817 34.26780404 24.2265625 32.109375 C24.60941406 31.06523438 24.60941406 31.06523438 25 30 C25.66 29.01 26.32 28.02 27 27 C27.99 27.33 28.98 27.66 30 28 C29.69217504 29.64671412 29.37860766 31.29235576 29.0625 32.9375 C28.88847656 33.85402344 28.71445313 34.77054688 28.53515625 35.71484375 C28 38 28 38 27 39 C4.25608343 41.62804171 4.25608343 41.62804171 -1 39 C-0.9278125 38.27941406 -0.855625 37.55882812 -0.78125 36.81640625 C0.27962623 24.54265762 0.06620775 12.31464108 0 0 Z " fill="#475CC6" transform="translate(190,44)"/>
<path d="M0 0 C8.25 0 16.5 0 25 0 C28 8 28 8 28 12 C26.3125 11.875 26.3125 11.875 24 11 C22.81069548 9.45711847 21.62167181 7.91401192 20.4375 6.3671875 C17.9957875 4.04490659 15.23089299 4.12670169 12 4 C12 8.29 12 12.58 12 17 C18.01807754 15.235008 18.01807754 15.235008 23 12 C23 16.95 23 21.9 23 27 C19 25 19 25 17 23 C15.35 22.67 13.7 22.34 12 22 C12 26.29 12 30.58 12 35 C17.91091924 35.09283103 17.91091924 35.09283103 22.86328125 32.375 C23.887027 31.11500524 24.87205389 29.8221915 25.80859375 28.49609375 C26.20175781 28.00238281 26.59492188 27.50867188 27 27 C27.66 27 28.32 27 29 27 C29.19157797 31.88523811 28.87404046 34.31489886 27 39 C17.76 39 8.52 39 -1 39 C-1.02292854 33.76719813 -1.04284997 28.53456985 -1.05493164 23.30175781 C-1.05996711 21.52082733 -1.06679581 19.739901 -1.07543945 17.95898438 C-1.08753942 15.40233335 -1.09323609 12.84573688 -1.09765625 10.2890625 C-1.10281754 9.49005524 -1.10797882 8.69104797 -1.11329651 7.86782837 C-1.11387171 2.22774341 -1.11387171 2.22774341 0 0 Z " fill="#010108" transform="translate(261,44)"/>
<path d="M0 0 C1.65 0.66 3.3 1.32 5 2 C6.18135474 8.48349807 6.11322974 14.86214507 6.0625 21.4375 C6.05798828 22.55060547 6.05347656 23.66371094 6.04882812 24.81054688 C6.03711193 27.54042101 6.02070699 30.27018174 6 33 C5.34 33 4.68 33 4 33 C3.896875 33.556875 3.79375 34.11375 3.6875 34.6875 C2.85988599 37.47129258 1.62262248 39.59851873 0 42 C-0.99 42.495 -0.99 42.495 -2 43 C-2.33 43.99 -2.66 44.98 -3 46 C-2.29875 45.96519531 -1.5975 45.93039063 -0.875 45.89453125 C5.62012283 45.70920845 10.05341666 46.43681752 16 49 C17.65672637 49.37966646 19.32070245 49.73760976 21 50 C19.51897443 53.45572632 18.17153653 55.91142717 15 58 C11.26589069 58.08734759 7.66553125 57.70887133 4 57 C3.505 56.505 3.505 56.505 3 56 C0.07370428 55.89929752 -2.82390339 55.86132665 -5.75 55.875 C-6.96816406 55.86919922 -6.96816406 55.86919922 -8.2109375 55.86328125 C-12.27079574 55.8698934 -16.03947814 55.98572001 -20 57 C-17.63707344 54.47411298 -16.33537489 53.11179163 -13 52 C-9.94372496 49.24189814 -7.58113245 46.82107009 -6 43 C-5.67 42.34 -5.34 41.68 -5 41 C-4.89150993 38.27710459 -4.83864036 35.57520614 -4.82421875 32.8515625 C-4.80102124 31.19009149 -4.77690393 29.52863311 -4.75195312 27.8671875 C-4.71682621 25.24470559 -4.68748818 22.62268863 -4.67407227 20 C-4.65859794 17.47078024 -4.61839489 14.94292249 -4.57421875 12.4140625 C-4.57612717 11.63165192 -4.57803558 10.84924133 -4.58000183 10.04312134 C-4.49707722 6.35215314 -4.31753168 4.39395405 -1.96411133 1.47412109 C-1.31595459 0.98766113 -0.66779785 0.50120117 0 0 Z " fill="#5270FB" transform="translate(57,46)"/>
<path d="M0 0 C1.2652614 3.60112861 0.9392247 6.34745949 0 10 C-1.75 9.875 -1.75 9.875 -4 9 C-4.8971875 7.515 -4.8971875 7.515 -5.8125 6 C-7.77550497 2.62204121 -7.77550497 2.62204121 -11.75 2.125 C-13.35875 2.063125 -13.35875 2.063125 -15 2 C-15.33 3.65 -15.66 5.3 -16 7 C-12.21755602 10.17237237 -8.23025219 12.86893332 -4.0859375 15.53515625 C-0.85471044 17.80427637 0.73496325 19.20488974 2 23 C2.50470086 27.45819097 2.33695607 29.45882813 -0.0625 33.3125 C-4.02282434 36.93577546 -7.11123816 38.04972829 -12.49609375 37.95703125 C-16.96830557 37.60483626 -20.9398213 37.03008935 -25 35 C-25.125 27.25 -25.125 27.25 -24 25 C-19.99097581 26.3363414 -19.19108105 28.49427032 -17 32 C-15.83016556 33.39681568 -15.83016556 33.39681568 -12.5625 33.125 C-9.15894416 33.2526281 -9.15894416 33.2526281 -7 32 C-7.09636306 29.61115038 -7.09636306 29.61115038 -8 27 C-10.33635845 25.05280183 -10.33635845 25.05280183 -13.25 23.5 C-23.13513514 17.59459459 -23.13513514 17.59459459 -25 12 C-25.26563796 8.4138876 -25.22653144 5.66449221 -24.0625 2.25 C-18.05285017 -4.30598164 -7.35161771 -4.49443878 0 0 Z " fill="#02020A" transform="translate(355,46)"/>
<path d="M0 0 C1.89648438 0.08203125 1.89648438 0.08203125 4 1 C5.40039062 3.44921875 5.40039062 3.44921875 6.65625 6.6875 C7.12160156 7.86183594 7.58695313 9.03617188 8.06640625 10.24609375 C8.54483071 11.49718188 9.0226918 12.74848558 9.5 14 C10.44673126 16.4171313 11.39462541 18.83380748 12.34375 21.25 C13.01664063 22.9825 13.01664063 22.9825 13.703125 24.75 C15.13214128 28.33114923 16.68146534 31.83783391 18.31835938 35.328125 C19 37 19 37 19 39 C14.05 39 9.1 39 4 39 C3.67 35.37 3.34 31.74 3 28 C-0.3 28 -3.6 28 -7 28 C-7.21222719 32.56288469 -6.77997029 34.55007426 -5 39 C-8.63 39 -12.26 39 -16 39 C-15.34 37.35 -14.68 35.7 -14 34 C-13.27161152 32.14288159 -12.54336776 30.28570564 -11.81700134 28.42779541 C-10.66341985 25.47723076 -9.50649795 22.52797832 -8.34985352 19.57861328 C-7.73894702 18.01938765 -7.12892845 16.45981384 -6.51977539 14.89990234 C-5.63930853 12.64585039 -4.75553011 10.39312185 -3.87109375 8.140625 C-3.59817001 7.43963684 -3.32524628 6.73864868 -3.04405212 6.01641846 C-1.11381627 1.11381627 -1.11381627 1.11381627 0 0 Z M-3 16 C-3.66 18.31 -4.32 20.62 -5 23 C-2.525 23.495 -2.525 23.495 0 24 C-0.44703986 19.52116304 -0.44703986 19.52116304 -3 16 Z " fill="#4B5ECB" transform="translate(127,44)"/>
<path d="M0 0 C1.79244141 0.01740234 1.79244141 0.01740234 3.62109375 0.03515625 C5.41740234 0.04869141 5.41740234 0.04869141 7.25 0.0625 C8.17683594 0.07410156 9.10367188 0.08570313 10.05859375 0.09765625 C10.19523438 0.65710937 10.331875 1.2165625 10.47265625 1.79296875 C12.09874666 8.18892436 13.84900057 14.28982097 17.05859375 20.09765625 C20.70019008 14.30420755 22.51502592 10.94288745 21.05859375 4.09765625 C21.05859375 2.77765625 21.05859375 1.45765625 21.05859375 0.09765625 C24.02859375 0.09765625 26.99859375 0.09765625 30.05859375 0.09765625 C31.05859375 3.09765625 31.05859375 3.09765625 29.43359375 6.47265625 C29.0571875 7.18035156 28.68078125 7.88804688 28.29296875 8.6171875 C26.37941651 12.46245862 24.94281804 16.47212169 23.4296875 20.48828125 C21.91302461 24.48086389 20.33775753 28.44703609 18.74609375 32.41015625 C18.47941895 33.07474854 18.21274414 33.73934082 17.93798828 34.42407227 C17.3122574 35.98222854 16.68553899 37.53998819 16.05859375 39.09765625 C14.73859375 39.09765625 13.41859375 39.09765625 12.05859375 39.09765625 C6.15050994 26.68771137 1.15394977 13.85664364 -3.94140625 1.09765625 C-2.94140625 0.09765625 -2.94140625 0.09765625 0 0 Z " fill="#01010A" transform="translate(225.94140625,43.90234375)"/>
<path d="M0 0 C0.99 0 1.98 0 3 0 C5.29771877 3.62302413 5.16171042 6.51300246 4.9765625 10.734375 C4.925 12.02988281 4.8734375 13.32539062 4.8203125 14.66015625 C4.75544062 16.02344857 4.69033347 17.38672972 4.625 18.75 C4.56672442 20.12886502 4.50942192 21.50777153 4.453125 22.88671875 C4.31165822 26.25834372 4.16024172 29.62922366 4 33 C3.67 33 3.34 33 3 33 C2.8316832 28.93756661 2.66563538 24.87504353 2.5 20.8125 C2.45230469 19.66201172 2.40460938 18.51152344 2.35546875 17.32617188 C2.31035156 16.21435547 2.26523438 15.10253906 2.21875 13.95703125 C2.17685547 12.93585205 2.13496094 11.91467285 2.09179688 10.86254883 C2.0076663 8.23906217 1.9831353 5.62456889 2 3 C1.34 2.67 0.68 2.34 0 2 C0.00636475 3.15411377 0.01272949 4.30822754 0.01928711 5.49731445 C0.03384475 9.82725769 0.0021369 14.15589444 -0.04272461 18.4855957 C-0.05577012 20.35045904 -0.05668581 22.21545196 -0.04467773 24.08032227 C0.0198 35.54200755 -0.02128439 44.05921016 -8 53 C-3.07343343 51.55577364 -0.93280884 50.28641292 2 46 C2.33 46.66 2.66 47.32 3 48 C5.80082345 42.44681025 6.41317155 38.1761539 6.29296875 32.00390625 C6.28660149 30.75358864 6.28660149 30.75358864 6.28010559 29.47801208 C6.26343314 26.83916689 6.22580358 24.20111084 6.1875 21.5625 C6.17243833 19.76368297 6.15875253 17.96485387 6.14648438 16.16601562 C6.11356728 11.77704385 6.06186567 7.38865531 6 3 C6.66 3 7.32 3 8 3 C10.59815157 40.07005545 10.59815157 40.07005545 3 54 C6.3 54.33 9.6 54.66 13 55 C13.33 54.01 13.66 53.02 14 52 C15.32 52 16.64 52 18 52 C17.57212579 56.90689791 15.07911185 59.75603982 11.9375 63.3125 C11.46505859 63.86228516 10.99261719 64.41207031 10.50585938 64.97851562 C9.345619 66.3262696 8.17392776 67.66415117 7 69 C3.20088882 68.28159908 -0.34658827 67.27444595 -4 66 C-3.505 65.01 -3.505 65.01 -3 64 C0.49234244 63.90021879 3.59437148 64.22157062 7 65 C8.98 62.69 10.96 60.38 13 58 C10.89625 57.814375 10.89625 57.814375 8.75 57.625 C6.19992489 57.39999337 4.34637137 57.17877232 2.0625 56 C-0.56901206 54.72411537 -2.8425309 54.58267636 -5.75 54.375 C-6.73484375 54.30023438 -7.7196875 54.22546875 -8.734375 54.1484375 C-9.48203125 54.09945312 -10.2296875 54.05046875 -11 54 C-10.6875 52.125 -10.6875 52.125 -10 50 C-9.01 49.34 -8.02 48.68 -7 48 C-5.92863949 45.69855891 -4.92010283 43.3659787 -4 41 C-3.34 41 -2.68 41 -2 41 C-2.01047363 39.82904785 -2.02094727 38.6580957 -2.03173828 37.45166016 C-2.06787497 33.11689295 -2.09087733 28.78213911 -2.10986328 24.44726562 C-2.11993534 22.56931318 -2.13359362 20.69137647 -2.15087891 18.81347656 C-2.17507453 16.1177991 -2.18647083 13.42232854 -2.1953125 10.7265625 C-2.20563507 9.88380768 -2.21595764 9.04105286 -2.22659302 8.17276001 C-2.22699144 6.11378753 -2.12257588 4.05532065 -2 2 C-1.34 1.34 -0.68 0.68 0 0 Z " fill="#5266D6" transform="translate(65,38)"/>
<path d="M0 0 C2.64 0 5.28 0 8 0 C7.67 11.55 7.34 23.1 7 35 C4.69 35 2.38 35 0 35 C-1.41675165 32.16649671 -1.12978466 29.76651805 -1.1328125 26.6015625 C-1.13410156 25.31765625 -1.13539062 24.03375 -1.13671875 22.7109375 C-1.13462402 22.04030273 -1.1325293 21.36966797 -1.13037109 20.67871094 C-1.12503896 18.63989759 -1.13031051 16.60130632 -1.13671875 14.5625 C-1.13542969 13.27601562 -1.13414063 11.98953125 -1.1328125 10.6640625 C-1.13168457 9.48279785 -1.13055664 8.3015332 -1.12939453 7.08447266 C-1.02191731 4.52245905 -0.75553527 2.4331687 0 0 Z " fill="#516FF8" transform="translate(80,46)"/>
<path d="M0 0 C2.64 0 5.28 0 8 0 C8.33 11.88 8.66 23.76 9 36 C6.36 36 3.72 36 1 36 C0.34 34.35 -0.32 32.7 -1 31 C-0.67 30.67 -0.34 30.34 0 30 C0.22918242 25.98342857 0.22918242 25.98342857 0 22 C-0.66 21.34 -1.32 20.68 -2 20 C-1.01 20 -0.02 20 1 20 C0.67 13.4 0.34 6.8 0 0 Z " fill="#526FF7" transform="translate(192,46)"/>
<path d="M0 0 C0.66 -0.33 1.32 -0.66 2 -1 C2.99 -0.67 3.98 -0.34 5 0 C6.33525717 0.07973476 7.67412083 0.10771338 9.01171875 0.09765625 C9.76904297 0.09443359 10.52636719 0.09121094 11.30664062 0.08789062 C12.48516602 0.07532227 12.48516602 0.07532227 13.6875 0.0625 C14.88342773 0.05573242 14.88342773 0.05573242 16.10351562 0.04882812 C18.06904257 0.0370585 20.03453085 0.01912348 22 0 C22.58740234 1.86425781 22.58740234 1.86425781 23 4 C21.3935344 6.49495775 20.00578577 7.73365591 17.10449219 8.50195312 C14.86166511 8.84323068 12.63621206 9.06788896 10.375 9.25 C9.59898438 9.32734375 8.82296875 9.4046875 8.0234375 9.484375 C5.34766364 9.74451968 2.69020379 10 0 10 C0 9.34 0 8.68 0 8 C-2.64 8.66 -5.28 9.32 -8 10 C-8 9.01 -8 8.02 -8 7 C-8.99 7 -9.98 7 -11 7 C-10.34 4.69 -9.68 2.38 -9 0 C-5.64035843 -1.11988052 -3.41909335 -0.71980913 0 0 Z " fill="#5270FA" transform="translate(70,30)"/>
<path d="M0 0 C0.66 0.33 1.32 0.66 2 1 C0.625 2.5 0.625 2.5 -1 4 C-1.66 4 -2.32 4 -3 4 C-3 5.32 -3 6.64 -3 8 C-2.0925 7.67 -1.185 7.34 -0.25 7 C6.57222306 5.03687051 14.13588687 5.42854553 21 7 C21 7.66 21 8.32 21 9 C19.87722656 8.95359375 18.75445312 8.9071875 17.59765625 8.859375 C5.68494589 8.30348104 5.68494589 8.30348104 -5 13 C-7.66836411 17.00254616 -7.8340238 20.29313299 -7 25 C-4.81840855 27.75569447 -3.12822506 29.43588747 0 31 C6.08516056 31.23333287 6.08516056 31.23333287 12 30 C12.33 31.32 12.66 32.64 13 34 C8.01833495 36.49083253 3.14493361 36.95318315 -2.15234375 35.34765625 C-6.35727419 33.5231706 -9.32782542 31.40329068 -11.3671875 27.11328125 C-12.96301337 21.78401092 -13.16945853 16.59523673 -10.859375 11.46875 C-7.88655614 6.77482548 -4.45323561 3.286912 0 0 Z " fill="#5266D9" transform="translate(31,28)"/>
<path d="M0 0 C1.65 0.33 3.3 0.66 5 1 C5 1.66 5 2.32 5 3 C5.99 3.33 6.98 3.66 8 4 C7.67 4.33 7.34 4.66 7 5 C7.32613281 5.90621094 7.65226563 6.81242187 7.98828125 7.74609375 C14.60748663 26.19786096 14.60748663 26.19786096 16 32 C13.69 32 11.38 32 9 32 C8.49384702 30.73160474 7.99530901 29.46016898 7.5 28.1875 C7.2215625 27.47980469 6.943125 26.77210937 6.65625 26.04296875 C6 24 6 24 6 21 C5.34 21 4.68 21 4 21 C3.18667257 18.89615302 2.37436583 16.79191143 1.5625 14.6875 C1.11003906 13.51574219 0.65757813 12.34398437 0.19140625 11.13671875 C-2.06677266 5.19141494 -2.06677266 5.19141494 -1.0625 2.3125 C-0.711875 1.549375 -0.36125 0.78625 0 0 Z " fill="#5170F8" transform="translate(126,49)"/>
<path d="M0 0 C2.31 0 4.62 0 7 0 C7 11.55 7 23.1 7 35 C4.36 35 1.72 35 -1 35 C-0.67 23.45 -0.34 11.9 0 0 Z " fill="#5370FB" transform="translate(153,46)"/>
<path d="M0 0 C0.66 0.66 1.32 1.32 2 2 C1.9765625 4.1640625 1.9765625 4.1640625 1.625 6.625 C1.45871094 7.85089844 1.45871094 7.85089844 1.2890625 9.1015625 C1.14597656 10.04128906 1.14597656 10.04128906 1 11 C2.65 11.33 4.3 11.66 6 12 C6 13.65 6 15.3 6 17 C3.36 17 0.72 17 -2 17 C-2.21222719 21.56288469 -1.77997029 23.55007426 0 28 C-3.63 28 -7.26 28 -11 28 C-10.34 26.35 -9.68 24.7 -9 23 C-8.27693531 21.16082782 -7.55567676 19.32094485 -6.8359375 17.48046875 C-6.23652344 15.9480957 -6.23652344 15.9480957 -5.625 14.38476562 C-5.2125 13.32966797 -4.8 12.27457031 -4.375 11.1875 C-3.95476562 10.11306641 -3.53453125 9.03863281 -3.1015625 7.93164062 C-2.06753766 5.28782711 -1.03368931 2.64394472 0 0 Z " fill="#3B4FA9" transform="translate(122,55)"/>
<path d="M0 0 C5.20345615 1.41912441 8.29809235 3.13908713 11.08984375 7.83203125 C13.18996368 12.83446285 12.66882463 18.96893837 10.8125 24 C8.75896157 27.39896016 7.66913176 27.84132681 4 29 C3.67 29.99 3.34 30.98 3 32 C2.34 31.34 1.68 30.68 1 30 C1.73089844 28.7625 1.73089844 28.7625 2.4765625 27.5 C4.19897523 23.54286717 4.44659089 20.23181687 4.375 16 C4.39240234 14.97132812 4.39240234 14.97132812 4.41015625 13.921875 C4.38313645 9.20241706 3.37202014 6.04567902 1 2 C0.67 1.34 0.34 0.68 0 0 Z " fill="#5170F8" transform="translate(172,48)"/>
<path d="M0 0 C0.33 0.99 0.66 1.98 1 3 C0.34 3 -0.32 3 -1 3 C-0.98952637 4.24612061 -0.97905273 5.49224121 -0.96826172 6.77612305 C-0.93201256 11.40727862 -0.90908156 16.0384217 -0.89013672 20.66967773 C-0.88009037 22.67262889 -0.86645091 24.67556542 -0.84912109 26.6784668 C-0.82481287 29.56042088 -0.81350313 32.44218072 -0.8046875 35.32421875 C-0.79436493 36.21711105 -0.78404236 37.11000336 -0.77340698 38.029953 C-0.77237671 43.76228761 -1.11697809 47.82275592 -5 52.3125 C-7 54 -7 54 -9 54 C-9.33 54.99 -9.66 55.98 -10 57 C-13.0625 58.6875 -13.0625 58.6875 -16 60 C-15.14390137 59.75552124 -15.14390137 59.75552124 -14.27050781 59.50610352 C-11.98346733 58.99631481 -10.01035544 58.88564032 -7.671875 58.90234375 C-6.47304688 58.90717773 -6.47304688 58.90717773 -5.25 58.91210938 C-4.425 58.92048828 -3.6 58.92886719 -2.75 58.9375 C-1.90953125 58.94201172 -1.0690625 58.94652344 -0.203125 58.95117188 C1.86461401 58.96292039 3.93231624 58.98085478 6 59 C6.33 59.66 6.66 60.32 7 61 C5.24623047 60.96519531 5.24623047 60.96519531 3.45703125 60.9296875 C1.90886058 60.91092179 0.36068297 60.89272245 -1.1875 60.875 C-2.34088867 60.84986328 -2.34088867 60.84986328 -3.51757812 60.82421875 C-7.89063483 60.78668178 -10.95855905 61.17668561 -15 63 C-16.32 63 -17.64 63 -19 63 C-18.8359375 60.71875 -18.8359375 60.71875 -18 58 C-15.6015625 56.15625 -15.6015625 56.15625 -12.625 54.5 C-8.35035009 52.10890295 -6.03898509 50.49631746 -4 46 C-3.5687184 42.73641494 -3.58277681 39.49920078 -3.59375 36.2109375 C-3.57749573 34.80057724 -3.57749573 34.80057724 -3.56091309 33.36172485 C-3.51509228 29.34894716 -3.50353734 25.33623484 -3.48876953 21.32324219 C-3.47311025 18.38973765 -3.44012543 15.45677893 -3.40625 12.5234375 C-3.40927124 11.61403412 -3.41229248 10.70463074 -3.41540527 9.76766968 C-3.40529419 8.9231424 -3.39518311 8.07861511 -3.38476562 7.20849609 C-3.38271118 6.46634857 -3.38065674 5.72420105 -3.37854004 4.95956421 C-2.90155554 2.49038883 -1.89567244 1.58872904 0 0 Z " fill="#4F63CF" transform="translate(54,42)"/>
<path d="M0 0 C8.02622516 -0.52727027 15.06682953 0.27145669 22.875 2 C31.27745284 3.83751454 39.38972493 5.00746076 48 4 C48.99 3.34 49.98 2.68 51 2 C51.99 2 52.98 2 54 2 C54.495 3.485 54.495 3.485 55 5 C52.44550072 9.70027867 49.43378856 13.01571924 45 16 C42.26723635 16.67085895 39.83198691 16.85351792 37 17 C40.14412403 14.33958736 43.11337543 13.26737758 47 12 C47.66 11.34 48.32 10.68 49 10 C49 9.01 49 8.02 49 7 C47.40285156 7.06960937 47.40285156 7.06960937 45.7734375 7.140625 C36.88562539 7.40514934 29.54164507 6.80972332 21.05078125 3.97265625 C15.86446887 2.31914565 11.05050266 1.87721664 5.625 1.9375 C4.56539062 1.94652344 3.50578125 1.95554687 2.4140625 1.96484375 C1.61742187 1.97644531 0.82078125 1.98804687 0 2 C0 1.34 0 0.68 0 0 Z " fill="#5869CF" transform="translate(43,24)"/>
<path d="M0 0 C0.99 0.495 0.99 0.495 2 1 C1.95875 2.2375 1.9175 3.475 1.875 4.75 C1.86341709 8.01637962 2.1431298 10.2146947 4 13 C4.33 12.34 4.66 11.68 5 11 C5.78375 11.804375 6.5675 12.60875 7.375 13.4375 C11.07611875 17.05049687 12.87935473 17.15767977 18.0234375 17.1015625 C20.12192113 16.99373528 22.00469612 16.66510129 24 16 C24.33 17.32 24.66 18.64 25 20 C20.01833495 22.49083253 15.14493361 22.95318315 9.84765625 21.34765625 C5.63627202 19.52037035 2.72411689 17.39647165 0.609375 13.1484375 C-0.61149209 8.8440984 -0.28806477 4.42499496 0 0 Z " fill="#4D5FC8" transform="translate(19,42)"/>
<path d="M0 0 C3.51360995 0.65066851 6.09753802 1.91618114 9 4 C10.625 6.5 10.625 6.5 12 9 C13.58245275 10.75149165 13.58245275 10.75149165 15 12 C14.34 13.98 13.68 15.96 13 18 C11.68 18 10.36 18 9 18 C7.5859375 16.42578125 7.5859375 16.42578125 6.375 14.3125 C5.95347656 13.5803125 5.53195313 12.848125 5.09765625 12.09375 C3.88178345 9.77450509 2.86814314 7.47086895 2 5 C1.62875 4.071875 1.2575 3.14375 0.875 2.1875 C0.58625 1.465625 0.2975 0.74375 0 0 Z " fill="#526FF6" transform="translate(93,66)"/>
<path d="M0 0 C6.32760267 1.43266476 6.32760267 1.43266476 9 3.6875 C10.49302187 7.14011307 9.97563232 9.4226815 9 13 C7.125 14.9375 7.125 14.9375 5 16 C4.01 16 3.02 16 2 16 C2.03480469 14.89591797 2.03480469 14.89591797 2.0703125 13.76953125 C2.08835937 12.79371094 2.10640625 11.81789063 2.125 10.8125 C2.14820312 9.84957031 2.17140625 8.88664062 2.1953125 7.89453125 C1.9913544 4.87187222 1.26874632 2.73230015 0 0 Z " fill="#5270F9" transform="translate(97,47)"/>
<path d="M0 0 C10 0 10 0 13 2 C13 2.66 13 3.32 13 4 C12.01 4 11.02 4 10 4 C10 3.34 10 2.68 10 2 C7.36 2 4.72 2 2 2 C2.33 2.66 2.66 3.32 3 4 C3.08308638 5.37548156 3.10736016 6.75485796 3.09765625 8.1328125 C3.09282227 9.34130859 3.09282227 9.34130859 3.08789062 10.57421875 C3.07951172 11.41597656 3.07113281 12.25773437 3.0625 13.125 C3.05798828 13.97449219 3.05347656 14.82398438 3.04882812 15.69921875 C3.03702874 17.79950909 3.01909306 19.8997633 3 22 C2.01 21.67 1.02 21.34 0 21 C0 14.07 0 7.14 0 0 Z " fill="#4960D0" transform="translate(190,44)"/>
<path d="M0 0 C0.98871094 -0.01417969 1.97742188 -0.02835938 2.99609375 -0.04296875 C5.5625 0.1875 5.5625 0.1875 7.5625 2.1875 C4.2625 2.1875 0.9625 2.1875 -2.4375 2.1875 C-2.4375 13.4075 -2.4375 24.6275 -2.4375 36.1875 C-0.1275 36.5175 2.1825 36.8475 4.5625 37.1875 C4.5625 37.5175 4.5625 37.8475 4.5625 38.1875 C1.5925 38.1875 -1.3775 38.1875 -4.4375 38.1875 C-4.1075 26.3075 -3.7775 14.4275 -3.4375 2.1875 C-4.4275 1.8575 -5.4175 1.5275 -6.4375 1.1875 C-4.69900372 -0.55099628 -2.3588363 0.01533704 0 0 Z " fill="#4B62E0" transform="translate(155.4375,43.8125)"/>
<path d="M0 0 C0.99 0.33 1.98 0.66 3 1 C2.69217504 2.64671412 2.37860766 4.29235576 2.0625 5.9375 C1.88847656 6.85402344 1.71445313 7.77054687 1.53515625 8.71484375 C1 11 1 11 0 12 C-2.65463121 12.45459858 -5.32189138 12.70243238 -8 13 C-8.33 12.34 -8.66 11.68 -9 11 C-8.01 11 -7.02 11 -6 11 C-5.7525 10.113125 -5.505 9.22625 -5.25 8.3125 C-3.96065232 4.89572865 -2.40019871 2.7202252 0 0 Z " fill="#4F67E2" transform="translate(217,71)"/>
<path d="M0 0 C0.66 0 1.32 0 2 0 C2.79568202 11.35267742 3.12818318 22.62018175 3 34 C2.34 34 1.68 34 1 34 C0.13387208 22.64753762 -0.11858127 11.38380184 0 0 Z " fill="#4E66DD" transform="translate(71,41)"/>
<path d="M0 0 C2.8467915 2.8467915 2.2903266 5.04970196 2.32226562 8.94335938 C2.31743164 10.30170898 2.31743164 10.30170898 2.3125 11.6875 C2.32861328 12.57373047 2.34472656 13.45996094 2.36132812 14.37304688 C2.36549933 20.00833858 1.7308618 24.03660884 -1 29 C-1.66 29.33 -2.32 29.66 -3 30 C-2.68289062 28.9171875 -2.36578125 27.834375 -2.0390625 26.71875 C-0.69675592 21.34952368 -0.54858069 16.01118685 -0.375 10.5 C-0.33632812 9.48679687 -0.29765625 8.47359375 -0.2578125 7.4296875 C-0.16436381 4.95329716 -0.07860127 2.47689849 0 0 Z " fill="#536EF6" transform="translate(70,57)"/>
<path d="M0 0 C0.66 0 1.32 0 2 0 C3.56399861 3.5948824 5.09725474 7.20207848 6.625 10.8125 C7.07101563 11.83666016 7.51703125 12.86082031 7.9765625 13.91601562 C8.5953125 15.39038086 8.5953125 15.39038086 9.2265625 16.89453125 C9.61408691 17.80050049 10.00161133 18.70646973 10.40087891 19.63989258 C10.59858887 20.41872803 10.79629883 21.19756348 11 22 C10.34 22.99 9.68 23.98 9 25 C6.64553854 22.64553854 6.42755421 20.80584817 5.70703125 17.63671875 C4.45057509 12.95103969 2.69325069 8.42987111 1.0234375 3.87890625 C0 1 0 1 0 0 Z " fill="#4B5CCA" transform="translate(132,53)"/>
<path d="M0 0 C4.875 3.5 4.875 3.5 6 8 C2.37 8 -1.26 8 -5 8 C-4.34 6.35 -3.68 4.7 -3 3 C-2.01 2.67 -1.02 2.34 0 2 C0 1.34 0 0.68 0 0 Z " fill="#4F66E0" transform="translate(116,75)"/>
<path d="M0 0 C0.33 0 0.66 0 1 0 C1.33 4.29 1.66 8.58 2 13 C3.32 13.33 4.64 13.66 6 14 C6.33 15.32 6.66 16.64 7 18 C5.35 18 3.7 18 2 18 C1.67 22.29 1.34 26.58 1 31 C0.67 31 0.34 31 0 31 C0 20.77 0 10.54 0 0 Z " fill="#4E61C2" transform="translate(200,48)"/>
<path d="M0 0 C0.66 0.33 1.32 0.66 2 1 C-0.31 3.64 -2.62 6.28 -5 9 C-8.86428195 8.22714361 -12.30256981 7.28980123 -16 6 C-15.67 5.34 -15.34 4.68 -15 4 C-12.24517432 3.92129069 -10.14059798 3.95430566 -7.5 4.8125 C-6.675 4.874375 -5.85 4.93625 -5 5 C-2.16588845 2.666508 -2.16588845 2.666508 0 0 Z " fill="#4C5ED6" transform="translate(77,98)"/>
<path d="M0 0 C1.32 0.33 2.64 0.66 4 1 C4.66 3.31 5.32 5.62 6 8 C5.34 8 4.68 8 4 8 C4 7.34 4 6.68 4 6 C2.35 5.67 0.7 5.34 -1 5 C-1.66 7.64 -2.32 10.28 -3 13 C-4.08644535 8.6542186 -3.90680911 8.05039452 -2.0625 4.25 C-1.68222656 3.45078125 -1.30195312 2.6515625 -0.91015625 1.828125 C-0.60980469 1.22484375 -0.30945313 0.6215625 0 0 Z " fill="#4F60CD" transform="translate(127,44)"/>
<path d="M0 0 C0.33 0 0.66 0 1 0 C1 5.94 1 11.88 1 18 C0.01 17.67 -0.98 17.34 -2 17 C-2 13.04 -2 9.08 -2 5 C-1.34 5 -0.68 5 0 5 C0 3.35 0 1.7 0 0 Z " fill="#4158EA" transform="translate(192,48)"/>
<path d="M0 0 C0.99 0.33 1.98 0.66 3 1 C3 1.66 3 2.32 3 3 C5.64 3.33 8.28 3.66 11 4 C11 4.33 11 4.66 11 5 C10.04738281 5.06058594 9.09476563 5.12117188 8.11328125 5.18359375 C6.85902344 5.26738281 5.60476562 5.35117188 4.3125 5.4375 C3.07113281 5.51871094 1.82976563 5.59992188 0.55078125 5.68359375 C-2.38180337 5.94491317 -5.13441617 6.34798379 -8 7 C-5.63707344 4.47411298 -4.33537489 3.11179163 -1 2 C-0.67 1.34 -0.34 0.68 0 0 Z " fill="#4F69EF" transform="translate(45,96)"/>
<path d="M0 0 C0.33 0.66 0.66 1.32 1 2 C4.3 1.34 7.6 0.68 11 0 C10 4 10 4 8.3125 5.3125 C5.27796869 6.21465796 3.05119529 5.69345348 0 5 C-0.5625 3.0625 -0.5625 3.0625 -1 1 C-0.67 0.67 -0.34 0.34 0 0 Z " fill="#4055C8" transform="translate(201,78)"/>
<path d="M0 0 C6.27 0 12.54 0 19 0 C18.67 1.65 18.34 3.3 18 5 C15.69 4.67 13.38 4.34 11 4 C11 3.01 11 2.02 11 1 C7.37 1 3.74 1 0 1 C0 0.67 0 0.34 0 0 Z " fill="#4959BF" transform="translate(78,44)"/>
<path d="M0 0 C0.99 0 1.98 0 3 0 C2.67 3.3 2.34 6.6 2 10 C0.35 9.67 -1.3 9.34 -3 9 C-2.01 6.03 -1.02 3.06 0 0 Z " fill="#4552B2" transform="translate(117,68)"/>
<path d="M0 0 C0.99 0.495 0.99 0.495 2 1 C2 1.66 2 2.32 2 3 C5.465 2.505 5.465 2.505 9 2 C9 2.99 9 3.98 9 5 C3.375 7.125 3.375 7.125 0 6 C0 4.02 0 2.04 0 0 Z " fill="#3E52C5" transform="translate(160,77)"/>
<path d="M0 0 C5.05510556 0.44603873 7.40166738 2.64700824 11 6 C12.35439668 8.70879335 12.06501451 11.00933268 12 14 C11.731875 13.443125 11.46375 12.88625 11.1875 12.3125 C10.795625 11.549375 10.40375 10.78625 10 10 C9.3503125 8.700625 9.3503125 8.700625 8.6875 7.375 C6.71157349 4.5940664 5.22052097 3.95745218 2 3 C2 2.34 2 1.68 2 1 C1.34 0.67 0.68 0.34 0 0 Z " fill="#5463D1" transform="translate(97,45)"/>
<path d="M0 0 C0.99 0.33 1.98 0.66 3 1 C3 5.29 3 9.58 3 14 C1.68 14 0.36 14 -1 14 C-1.66 13.01 -2.32 12.02 -3 11 C-1.68 11.33 -0.36 11.66 1 12 C1.33 8.7 1.66 5.4 2 2 C1.01 1.67 0.02 1.34 -1 1 C-0.67 0.67 -0.34 0.34 0 0 Z " fill="#475BB6" transform="translate(211,56)"/>
<path d="M0 0 C0.99 0.33 1.98 0.66 3 1 C2.34 4.3 1.68 7.6 1 11 C0.67 11 0.34 11 0 11 C0 9.02 0 7.04 0 5 C-0.99 5.33 -1.98 5.66 -3 6 C-1.125 1.125 -1.125 1.125 0 0 Z " fill="#4D60B6" transform="translate(217,71)"/>
<path d="M0 0 C-1.57961301 3.15922602 -4.60093914 3.6261107 -7.7734375 4.90234375 C-10.01478836 6.0072904 -11.3574162 7.14017125 -13 9 C-12.45712148 5.19985035 -10.88535357 3.46103687 -8 1 C-5.07175348 0.02391783 -3.04386724 -0.08226668 0 0 Z " fill="#4D5FD0" transform="translate(36,35)"/>
<path d="M0 0 C1.98 0 3.96 0 6 0 C6.33 2.64 6.66 5.28 7 8 C5.8274869 7.04882866 4.66212985 6.08882991 3.5 5.125 C2.8503125 4.59132813 2.200625 4.05765625 1.53125 3.5078125 C1.0259375 3.01023438 0.520625 2.51265625 0 2 C0 1.34 0 0.68 0 0 Z " fill="#4F68E3" transform="translate(209,45)"/>
<path d="M0 0 C2.97 0 5.94 0 9 0 C8.67 1.32 8.34 2.64 8 4 C6.02 4.33 4.04 4.66 2 5 C2.99 3.68 3.98 2.36 5 1 C3.35 1 1.7 1 0 1 C0 0.67 0 0.34 0 0 Z " fill="#5065D8" transform="translate(53,37)"/>
<path d="M0 0 C0.33 0.66 0.66 1.32 1 2 C0.67 2.66 0.34 3.32 0 4 C1.98 4 3.96 4 6 4 C6 3.01 6 2.02 6 1 C6.66 1 7.32 1 8 1 C8.33 2.32 8.66 3.64 9 5 C5.37 5 1.74 5 -2 5 C-1.34 3.35 -0.68 1.7 0 0 Z " fill="#4E5BBA" transform="translate(113,78)"/>
<path d="M0 0 C1.32 0 2.64 0 4 0 C4 1.98 4 3.96 4 6 C2.0625 5.6875 2.0625 5.6875 0 5 C-0.33 4.01 -0.66 3.02 -1 2 C-0.67 1.34 -0.34 0.68 0 0 Z " fill="#040416" transform="translate(385,50)"/>
<path d="M0 0 C2.52588702 2.36292656 3.88820837 3.66462511 5 7 C4.01 8.485 4.01 8.485 3 10 C-0.00617269 6.99382731 0.40414684 4.17618402 0 0 Z " fill="#495FDE" transform="translate(138,68)"/>
<path d="M0 0 C0.66 0.33 1.32 0.66 2 1 C2 3.31 2 5.62 2 8 C-1 7 -1 7 -2.1875 4.9375 C-2.5896875 3.9784375 -2.5896875 3.9784375 -3 3 C-2.34 3 -1.68 3 -1 3 C-0.67 2.01 -0.34 1.02 0 0 Z " fill="#4F6FF2" transform="translate(210,60)"/>
<path d="M0 0 C3.63 0 7.26 0 11 0 C10.01 0.33 9.02 0.66 8 1 C7.67 1.66 7.34 2.32 7 3 C5.02 3 3.04 3 1 3 C0.67 2.01 0.34 1.02 0 0 Z " fill="#4D5FE6" transform="translate(72,39)"/>
<path d="M0 0 C0.66 0.33 1.32 0.66 2 1 C0.88200014 2.33920838 -0.24461897 3.67122556 -1.375 5 C-2.00148438 5.7425 -2.62796875 6.485 -3.2734375 7.25 C-4.12808594 8.11625 -4.12808594 8.11625 -5 9 C-5.66 9 -6.32 9 -7 9 C-5.44499019 5.18315774 -2.96404505 2.80804268 0 0 Z " fill="#5262C7" transform="translate(77,98)"/>
<path d="M0 0 C0.66 0.33 1.32 0.66 2 1 C1.01 1.66 0.02 2.32 -1 3 C-1.33 3.99 -1.66 4.98 -2 6 C-1.01 6.33 -0.02 6.66 1 7 C-0.65 7 -2.3 7 -4 7 C-4.625 5.125 -4.625 5.125 -5 3 C-3 1 -3 1 0 0 Z " fill="#4F6AEF" transform="translate(56,86)"/>
<path d="M0 0 C0.99 0.33 1.98 0.66 3 1 C3 3.64 3 6.28 3 9 C2.01 9.495 2.01 9.495 1 10 C-0.1577506 6.52674819 -0.06866652 3.63932552 0 0 Z " fill="#3E57E5" transform="translate(190,67)"/>
<path d="M0 0 C2.39763185 2.39763185 2.34280586 3.33273498 2.625 6.625 C2.69976562 7.44226562 2.77453125 8.25953125 2.8515625 9.1015625 C2.90054688 9.72804688 2.94953125 10.35453125 3 11 C2.01 11 1.02 11 0 11 C0 7.37 0 3.74 0 0 Z " fill="#3F51A8" transform="translate(215,45)"/>
<path d="M0 0 C5.19209404 -0.21192221 9.126739 0.4087311 14 2 C14 2.33 14 2.66 14 3 C8.78020872 3.1799928 4.92737019 2.97094808 0 1 C0 0.67 0 0.34 0 0 Z " fill="#5369DF" transform="translate(69,28)"/>
<path d="M0 0 C0.99 0.66 1.98 1.32 3 2 C-3.625 5 -3.625 5 -7 5 C-7 4.34 -7 3.68 -7 3 C-5.5459375 2.5359375 -5.5459375 2.5359375 -4.0625 2.0625 C-1.15934208 1.30476658 -1.15934208 1.30476658 0 0 Z " fill="#4F67E9" transform="translate(98,62)"/>
<path d="M0 0 C2 2 2 2 2.125 5.125 C2.08375 6.07375 2.0425 7.0225 2 8 C1.01 8 0.02 8 -1 8 C-0.67 5.36 -0.34 2.72 0 0 Z " fill="#434FB2" transform="translate(122,55)"/>
<path d="M0 0 C0 0.66 0 1.32 0 2 C-4.455 2.495 -4.455 2.495 -9 3 C-6.01800145 0.01800145 -4.21244839 0 0 0 Z " fill="#5766CE" transform="translate(42,25)"/>
</svg>
